# xmcd
# Track frame offsets:
# 150
# 11787
# 23834
# 39086
# 51573
# 62533
# 73758
# 87539
# 98619
# 112209
# 127093
# 141724
# 152676
# 164321
# 175415
#
# Disc length: 2500 seconds
# Revision: 0
# Processed by: cddbd v1.5.1PL0 Copyright (c) Steve Scherf et al.
# Submitted via: VisiTrax 2.9.10.228 - For more info visit www.synapsa.com
#
DISCID=d909c20f
DTITLE=Dudley, Dave - CB90136
DYEAR=1900
DGENRE=Karaoke
TTITLE0=Six Days On The Road
TTITLE1=Truck Drivin' Man
TTITLE2=Pool Shark, The
TTITLE3=What We're Fighting For
TTITLE4=Cowboy Boots
TTITLE5=Last Day In The Mines
TTITLE6=Mad
TTITLE7=Truck Drivin' Son-Of-A-Gun
TTITLE8=There Ain't No Easy Run
TTITLE9=Me And Ole CB
TTITLE10=George (And The North Woods)
TTITLE11=Comin' Down
TTITLE12=Fly Away Again
TTITLE13=Two Six Packs Away
TTITLE14=If It Feels Good Do It
EXTD=
EXTT0=
EXTT1=
EXTT2=
EXTT3=
EXTT4=
EXTT5=
EXTT6=
EXTT7=
EXTT8=
EXTT9=
EXTT10=
EXTT11=
EXTT12=
EXTT13=
EXTT14=
PLAYORDER=
